<svg width="31" height="30" viewBox="0 0 31 30" fill="none" xmlns="http://www.w3.org/2000/svg">
<path d="M14.7937 0.050009C14.8044 0.044952 14.792 0.000561899 14.8416 0C14.9362 0 15.042 0.117437 15.0679 0.0028095C15.1332 0.122494 15.3285 -0.0848468 15.3775 0.0601232C15.5058 -0.0505709 15.5982 0.107885 15.7001 0.0028095L15.7181 0.0606851C15.753 0.0584375 15.7867 0.0376473 15.8222 0.0410187C16.3142 0.0848468 16.8113 0.0910277 17.292 0.197789L17.3179 0.142722C17.3348 0.162951 17.3551 0.185427 17.3815 0.191608C17.6118 0.250045 17.7891 0.296683 17.9912 0.311854C18.3593 0.339949 18.8801 0.524252 19.2443 0.633823C19.7785 0.793964 20.235 0.976581 20.7355 1.1665C20.9764 1.25809 21.1048 1.34687 21.3282 1.44633C21.384 1.47105 21.4836 1.41711 21.4949 1.54579L21.5365 1.49016C21.6193 1.5278 21.6992 1.6149 21.7701 1.65592C21.8861 1.72222 22.0071 1.7874 22.127 1.85539C22.2098 1.90259 22.368 1.9453 22.4209 1.98294C22.4558 2.00823 22.4755 2.08071 22.5064 2.09588C22.5374 2.11106 22.5571 2.04925 22.5909 2.06386C22.6083 2.07116 22.6348 2.11443 22.6658 2.13128C23.3587 2.50776 24.0489 3.03257 24.6326 3.52255C25.2507 4.04062 25.7805 4.58454 26.3023 5.18127C26.8365 5.7915 27.3251 6.37587 27.7254 7.10297C27.7653 7.17546 27.8594 7.19793 27.8222 7.32942L27.8639 7.27379C27.8796 7.34852 27.9534 7.39909 27.9753 7.44348C28.1526 7.79298 28.3553 8.13799 28.5332 8.48131C28.5962 8.60268 28.7555 9.18031 28.7826 9.20841C28.7938 9.21965 28.8456 9.19717 28.8636 9.2292C28.8912 9.27865 28.912 9.45227 28.9458 9.53487C29.0781 9.86077 29.1693 10.0973 29.2858 10.4255C29.2982 10.4609 29.3995 10.4294 29.2841 10.5587C29.4266 10.5261 29.3888 10.7413 29.4085 10.8205C29.5645 11.4448 29.7052 12.0454 29.8375 12.6826C29.8465 12.7253 29.7744 12.7855 29.8741 12.777C29.7728 12.8686 29.9399 12.9439 29.8488 13.0737L29.9039 13.1035C29.9439 13.6429 29.9839 14.2149 30.0418 14.7577C30.0497 14.833 30.0615 14.9701 30.0604 15.042C30.0593 15.1449 29.9675 15.2691 30.0711 15.2893C30.0024 15.3781 29.9754 15.3893 30.0441 15.4859C29.9484 15.5146 30.0103 15.5348 30.0041 15.5927C29.9512 16.0703 29.9698 16.5457 29.905 17.0323C29.8977 17.0862 29.8459 17.0699 29.8454 17.0885C29.8454 17.1233 29.882 17.166 29.8746 17.2245C29.869 17.2705 29.8122 17.3526 29.797 17.4307C29.6799 18.051 29.5977 18.6759 29.4215 19.2737C29.377 19.4249 29.2025 19.9901 29.1395 20.0885C29.0995 20.1514 29.0111 20.1076 29.0871 20.2587L29.0027 20.2733L29.0556 20.3037L29.0303 20.4975L28.9464 20.4694C28.9886 20.5695 28.9042 20.6088 28.8985 20.6251C28.8496 20.7656 28.7178 21.151 28.6497 21.255C28.6216 21.2977 28.5653 21.2988 28.5529 21.3331C28.5343 21.3842 28.558 21.5022 28.5383 21.5354C28.5146 21.5758 28.4572 21.5803 28.438 21.6112C28.3699 21.7202 28.2917 21.9843 28.223 22.118C28.0136 22.5243 27.8346 22.8092 27.5554 23.193C27.5233 23.2368 27.521 23.3065 27.498 23.3329C27.4704 23.3643 27.413 23.3537 27.4039 23.3638C27.3882 23.3818 27.4101 23.4492 27.3927 23.4941C27.3865 23.5093 27.2035 23.6925 27.1737 23.7386C26.9091 24.1448 26.5494 24.6219 26.1948 25.0068C25.9758 25.245 25.7078 25.5395 25.472 25.7732C25.2035 26.039 24.8916 26.2671 24.6022 26.5042C23.7764 27.1808 22.9467 27.7921 21.975 28.2624C21.8444 28.3259 21.72 28.4495 21.55 28.4422L21.5782 28.4979C21.3356 28.4861 21.2151 28.7271 20.9899 28.7265L20.9854 28.803C20.8745 28.7805 20.8233 28.862 20.7428 28.8856C20.6978 28.899 20.6415 28.8805 20.6099 28.8895C20.5784 28.8985 20.6111 28.9569 20.5756 28.9766C20.5294 29.003 20.3043 29.0244 20.2108 29.0553C20.172 29.0682 20.1731 29.1041 20.1489 29.1126C19.9918 29.166 19.8016 29.1671 19.6794 29.2839L19.6518 29.2278C19.5353 29.3531 19.3597 29.3289 19.2088 29.375C18.8091 29.4969 18.4646 29.6104 18.0683 29.6964C17.833 29.7475 17.5774 29.802 17.3449 29.82C17.1406 29.8357 16.8935 29.8638 16.6621 29.8959C16.5597 29.9099 16.4589 29.947 16.4116 29.9532C16.3722 29.9582 16.3497 29.9009 16.3103 29.9065C15.4985 30.0178 14.6423 30.024 13.8041 29.9554C13.678 29.9453 13.593 29.8964 13.5148 29.8773C13.338 29.834 12.9079 29.8543 12.7036 29.8324C12.39 29.7986 11.9932 29.7262 11.6841 29.6295C11.4026 29.5413 11.0784 29.5177 10.8009 29.393C10.6956 29.3452 10.5155 29.3019 10.3894 29.2587C9.68571 29.017 9.08506 28.7951 8.41011 28.4669C7.78131 28.1613 7.15927 27.8033 6.56257 27.4123C6.53273 27.3926 6.48657 27.3117 6.46574 27.301C6.37399 27.2538 6.25296 27.3021 6.27772 27.1223C6.2265 27.11 6.26759 27.1796 6.2355 27.1791C6.11898 27.1774 5.72774 26.7071 5.61853 26.6436C5.54254 26.5992 5.47104 26.6543 5.48793 26.5368C5.36803 26.5217 5.2318 26.3289 5.12541 26.2379C4.75556 25.9232 4.43863 25.649 4.09412 25.2883C3.91679 25.1023 3.74679 24.9135 3.60155 24.7135L3.55089 24.7365C3.37863 24.3965 3.05776 24.1223 2.84948 23.7875C2.66765 23.4964 2.38337 23.1677 2.19648 22.8142C2.12499 22.6788 2.09065 22.6552 2.00621 22.5243C1.93978 22.4215 1.91276 22.2984 1.86942 22.2175C1.80355 22.095 1.57106 21.7511 1.54235 21.6494C1.53335 21.6174 1.55811 21.5781 1.55023 21.5539C1.52997 21.4943 1.43708 21.5455 1.49507 21.428C1.34476 21.3904 1.39881 21.255 1.37066 21.1741C1.34251 21.0931 1.19728 20.9308 1.17926 20.8841C1.15168 20.8116 1.17363 20.7397 1.15506 20.6835C1.14323 20.6481 1.09257 20.6481 1.07625 20.6155C0.942269 20.3548 0.821238 19.9744 0.729481 19.7058C0.694579 19.6024 0.680506 19.4221 0.673188 19.408C0.522322 19.1001 0.444075 18.7253 0.369205 18.3786C0.329237 18.1943 0.313475 17.8999 0.258308 17.738C0.250427 17.715 0.223406 17.715 0.203141 17.7178L0.257745 17.6234C0.110257 17.5195 0.234665 17.4807 0.227347 17.4284C0.223406 17.4003 0.163736 17.3599 0.152477 17.3048C0.135589 17.2211 0.152477 17.0261 0.138967 16.9255C0.124893 16.8199 0.0517124 16.6137 0.038765 16.5198C0.0336986 16.4839 0.0618452 16.4665 0.0359504 16.326C-0.0377935 15.9265 0.0258176 15.4668 0.0269435 15.0662C0.0280693 14.7122 -0.0389194 14.1666 0.0342616 13.8351C0.0393279 13.8126 0.159232 13.7834 0.0325728 13.6339C0.141781 13.5766 0.0849253 13.2895 0.0989986 13.1602C0.178935 12.4062 0.392285 11.5791 0.588185 10.8463C0.705838 10.4053 0.870776 9.81863 1.08019 9.42755C1.10158 9.38765 1.15112 9.3826 1.15393 9.37698C1.15956 9.36574 1.1286 9.3236 1.13592 9.28932C1.16237 9.16795 1.39318 8.75046 1.45228 8.59481C1.46354 8.5656 1.43146 8.51727 1.4399 8.51053C1.45003 8.5021 1.5052 8.52851 1.52546 8.49199C1.54967 8.44872 1.55305 8.3296 1.58119 8.27959C1.59865 8.24812 1.64424 8.23857 1.67126 8.19474C1.74388 8.07674 1.83451 7.76545 1.91726 7.65925C1.94372 7.62554 1.98763 7.64689 1.9972 7.63678C2.00958 7.62385 1.99833 7.54631 2.01747 7.5008C2.12105 7.25187 2.42728 6.82933 2.58884 6.61243C2.61417 6.57872 2.61417 6.52421 2.635 6.48601L2.7048 6.48881C2.6654 6.31968 2.7808 6.32811 2.8461 6.25057C3.12137 5.92298 3.34936 5.53696 3.64265 5.23466C3.68824 5.18802 3.88414 5.10767 3.85825 5.00034L3.91285 5.02788C3.91736 4.8638 4.08004 4.80368 4.16786 4.70703C4.36432 4.48958 4.5591 4.25751 4.80059 4.07321C4.83043 4.05017 4.88841 4.05017 4.89517 4.0423C4.916 4.01814 4.88222 3.9333 4.90305 3.90913C4.91037 3.90071 4.96947 3.90239 4.99762 3.87879C5.26839 3.65628 5.49638 3.42646 5.76377 3.20283C6.40157 2.66902 7.18461 2.18466 7.93837 1.78796C8.03294 1.73795 8.27669 1.6739 8.37014 1.60647C8.39885 1.58568 8.37914 1.53286 8.38928 1.52387C8.39941 1.51488 8.60544 1.47499 8.6668 1.44858C8.95221 1.32721 9.17907 1.21988 9.4504 1.10694C9.63279 1.03109 9.81743 0.936124 10.0116 0.852963C10.0871 0.820935 10.1546 0.85184 10.2154 0.834421C10.2734 0.817564 10.2689 0.761936 10.2869 0.761936C10.5188 0.760812 10.4164 0.738898 10.5723 0.684394C10.8065 0.602918 11.1583 0.509643 11.4077 0.439405C12.0635 0.25454 12.9287 0.158456 13.6589 0.10058C13.9426 0.078104 14.1801 0.0539423 14.4447 0.0623708C14.5179 0.0646184 14.7419 0.0741707 14.7904 0.0516947L14.7937 0.050009ZM14.8224 0.62708C14.7149 0.564147 12.6214 0.877125 12.3653 0.92601C11.7764 1.03783 11.1319 1.19235 10.5594 1.36935C9.80674 1.60141 9.10026 1.97171 8.44276 2.28862C8.18381 2.41336 7.92486 2.54091 7.65803 2.64261L7.68561 2.69656C7.64283 2.70555 7.53756 2.73196 7.50885 2.75387C7.47564 2.77915 7.50097 2.82298 7.47057 2.83928C7.37994 2.88816 7.28818 2.90502 7.17278 2.97975C7.13225 3.00616 7.02417 3.06291 7.01742 3.06966C7.00109 3.08651 7.0101 3.14102 6.98477 3.16181C6.97238 3.17192 6.92847 3.14832 6.89976 3.16181C6.799 3.20788 6.52204 3.48041 6.40551 3.56806C6.03116 3.8507 5.64105 4.12434 5.32131 4.42327C5.26895 4.47216 5.25713 4.54689 5.23011 4.57105C5.20478 4.59409 5.12146 4.60083 5.08769 4.63342C5.06123 4.65927 5.07812 4.70422 5.05222 4.7222C5.02183 4.74299 4.96272 4.71771 4.9599 4.72164C4.93964 4.74693 4.93513 4.87111 4.87378 4.93179C4.82593 4.97899 4.69814 5.03968 4.63172 5.11104C4.59231 5.15318 4.57542 5.23016 4.55572 5.24589C4.52645 5.27005 4.44144 5.26275 4.42625 5.28635C4.41386 5.30489 4.43019 5.35041 4.42005 5.37007C4.3784 5.44874 4.28664 5.53696 4.19938 5.56449L4.22584 5.64597C4.09355 5.68698 3.91905 5.88646 3.83235 5.99659C3.71977 6.13987 3.66235 6.26462 3.58016 6.39161C3.51711 6.48994 3.35893 6.61693 3.29644 6.69784C3.23396 6.77875 3.14727 6.95519 3.08366 7.04678C2.99359 7.17714 2.79994 7.35133 2.81852 7.49686C2.6851 7.48787 2.72732 7.57384 2.6896 7.63678C2.51453 7.93009 2.31694 8.26105 2.1886 8.54031C1.87898 9.21178 1.51702 9.96192 1.31831 10.6693C1.28847 10.7767 1.27158 10.9014 1.23781 11.0155C1.07737 11.5605 0.89836 12.1179 0.830808 12.6866C0.81392 12.8304 0.844319 12.9928 0.767197 13.1299L0.822927 13.1833C0.464903 14.6122 0.659677 16.1574 0.853888 17.5599C0.936639 18.1561 1.15112 18.7062 1.32112 19.2827C1.36503 19.4316 1.35377 19.612 1.46861 19.7255L1.41232 19.7805C1.52096 19.8727 1.51758 20.0351 1.56037 20.1385C1.57725 20.1789 1.6161 20.2014 1.63073 20.2362C1.72868 20.4689 1.83958 20.6993 1.89081 20.9459L1.97468 20.9178C1.97468 20.9667 1.96736 21.0167 1.982 21.065C2.03154 21.2258 2.26178 21.714 2.34959 21.8354C2.3783 21.8747 2.47344 21.9545 2.52298 21.9545C2.796 21.8259 2.98064 21.5724 3.19737 21.3657C3.55933 21.0212 3.94663 20.6554 4.29283 20.329C4.36263 20.2632 4.44032 20.0604 4.56191 20.1323C4.52757 19.9716 4.6548 19.9963 4.69476 19.9559C4.74318 19.907 4.78821 19.7227 4.92725 19.7665C4.89123 19.6148 5.01169 19.6603 5.08487 19.5726C5.11471 19.5367 5.1209 19.4715 5.12991 19.4642C5.1513 19.4473 5.20816 19.4648 5.23799 19.4462C5.27683 19.4215 5.25207 19.3316 5.2926 19.3024C5.31793 19.2844 5.37141 19.299 5.39843 19.2827C5.4232 19.2681 5.43671 19.1877 5.47105 19.1585C5.55774 19.0855 5.96586 18.7714 6.00921 18.6983C6.02891 18.6646 6.0154 18.6129 6.03004 18.5938C6.03623 18.5854 6.13305 18.5629 6.17189 18.5326C6.37061 18.3758 6.68923 18.0173 6.85248 17.8577C7.17222 17.5453 7.47114 17.2616 7.80777 16.9592C7.86463 16.9081 7.87926 16.7806 7.99241 16.848C7.99635 16.8008 8.01887 16.7025 8.04758 16.6704C8.07291 16.6423 8.11963 16.6502 8.14553 16.6221C8.27782 16.4811 8.4709 16.2563 8.62514 16.1445C8.6623 16.1175 8.72084 16.1209 8.72422 16.1175C8.73548 16.1057 8.69439 16.0574 8.70058 16.0377C8.70452 16.0254 8.88466 15.9006 8.91618 15.8888L8.89254 15.8383C9.05072 15.8399 9.013 15.7618 9.07324 15.6955C9.22973 15.5236 9.41888 15.373 9.57819 15.2022C9.82644 14.9364 10.1045 14.7504 10.3545 14.5032C10.3995 14.4588 10.4333 14.3711 10.4761 14.3296C10.5273 14.2796 10.6551 14.2863 10.6365 14.152L10.7176 14.1795C10.8515 13.9671 11.0733 13.8087 11.2546 13.6328C11.8986 13.0097 12.537 12.3629 13.1522 11.7656C13.4151 11.5105 13.7793 11.2436 14.0028 11.0003C14.0197 10.9818 14.009 10.934 14.04 10.9104C14.0867 10.875 14.1514 10.9351 14.1239 10.7834L14.2077 10.8396C14.179 10.6907 14.2691 10.7272 14.3192 10.684C14.4267 10.5918 14.6175 10.3631 14.729 10.2519C14.792 10.1884 14.9277 10.0074 14.9418 9.99844C14.9581 9.98832 14.9981 10.026 15.0183 10.0192C15.0375 10.0136 15.0955 9.87819 15.1073 9.87033C15.1366 9.8501 15.1855 9.86527 15.2126 9.84953C15.2463 9.82987 15.2593 9.72873 15.2857 9.69614C15.2925 9.68827 15.4242 9.63264 15.445 9.61241C16.0254 9.05332 16.496 8.52064 17.0984 8.02786C17.1063 8.02111 17.1412 7.91604 17.2014 7.86154C17.8353 7.29289 18.4263 6.67874 19.0427 6.08649C19.4396 5.70497 19.8736 5.33636 20.2688 4.94528C20.3116 4.90257 20.32 4.83514 20.3459 4.81154C20.3645 4.79469 20.5187 4.73681 20.5323 4.71658L20.5064 4.63511C20.6341 4.66545 20.6122 4.59297 20.6735 4.53565C20.946 4.28392 21.3175 3.97319 21.5472 3.72258C21.5844 3.68213 21.5911 3.62144 21.6322 3.58323C21.7279 3.49445 21.8439 3.56919 21.854 3.38263C21.9655 3.2725 22.3916 2.9393 22.3832 2.80051C22.3787 2.72521 22.288 2.67183 22.3342 2.5853C22.2537 2.58811 22.1614 2.54372 22.0899 2.50607C21.5472 2.22006 20.9533 1.91271 20.4005 1.69637C20.3493 1.67615 20.1827 1.62389 20.1568 1.60535C20.1247 1.58231 20.1461 1.525 20.1399 1.51825C20.1348 1.51263 20.0425 1.54747 19.993 1.54185C19.8708 1.5278 19.64 1.40531 19.5162 1.36935C18.9116 1.19235 18.1815 0.965905 17.5662 0.870944C17.1907 0.813068 16.7606 0.839478 16.4139 0.70406C16.3818 0.826554 16.3412 0.715298 16.3013 0.714736C16.1042 0.709679 15.8363 0.655175 15.5999 0.646746C15.4439 0.641127 15.297 0.630451 15.1495 0.624832C15.073 0.621461 14.9007 0.681022 14.841 0.677089C14.8241 0.675965 14.8264 0.631575 14.8185 0.62708H14.8224ZM24.072 3.82991C23.9543 3.72146 23.7922 3.6619 23.6503 3.63998C23.6239 3.63605 23.6109 3.60458 23.5766 3.61077C23.4803 3.62818 23.4229 3.75293 23.3244 3.77934L22.9512 4.17772C22.9326 4.1485 22.8493 4.24459 22.8014 4.29572C22.7536 4.34685 22.5667 4.57218 22.534 4.59184C22.5014 4.61151 22.4479 4.5969 22.4288 4.61207C22.4192 4.61938 22.4136 4.68343 22.3826 4.71996C22.2509 4.8756 22.019 5.01327 21.899 5.14925C21.8444 5.21106 21.8968 5.27736 21.7493 5.2532C21.7814 5.4066 21.6525 5.38243 21.6148 5.42851C21.523 5.54033 21.4898 5.55662 21.398 5.64597C21.3237 5.71845 21.205 5.8859 21.1273 5.9404C21.0704 5.9803 21.0237 5.95389 21.0203 5.95782C21.0006 5.97749 21.0034 6.06233 20.9742 6.09492C20.9494 6.12189 20.9004 6.11347 20.883 6.13145C20.5688 6.4551 20.1759 6.83607 19.8359 7.16871C19.68 7.32099 19.5083 7.48225 19.3355 7.61598C19.3861 7.70814 19.3163 7.64183 19.2809 7.67274C19.2668 7.68454 19.2679 7.74185 19.233 7.78062C19.1615 7.85929 18.9898 7.96155 18.9076 8.04471C18.4984 8.45715 18.0734 8.89037 17.6405 9.27977C17.569 9.34439 17.5741 9.43317 17.417 9.40788C17.4795 9.54836 17.3433 9.51858 17.292 9.57758C17.2689 9.60455 17.2706 9.66467 17.2374 9.69164C17.1969 9.72423 17.1231 9.70794 17.1113 9.71974C17.0995 9.73154 17.1153 9.80515 17.0832 9.8456C17.0443 9.89393 16.9222 9.88325 16.9126 10.0142L16.7989 9.99675C16.8006 10.0569 16.7803 10.1058 16.7432 10.1524C16.6587 10.2592 16.4279 10.4362 16.3238 10.521C16.2799 10.5564 16.2185 10.5862 16.214 10.5912C16.174 10.6356 16.2382 10.6295 16.0964 10.743C16.0744 10.7609 16.0564 10.8312 16.0091 10.8744C15.7811 11.0857 15.5278 11.3172 15.3381 11.5004C14.4346 12.373 13.5615 13.2159 12.6507 14.0952C12.5263 14.2155 12.3112 14.374 12.1958 14.4976C12.1508 14.5459 12.1243 14.733 11.9898 14.656C12.0252 14.8448 11.7404 14.8381 11.7336 15.0168L11.5957 15.0213C11.5817 15.0628 11.7072 15.0392 11.6385 15.1055C11.6014 15.1409 11.549 15.1218 11.5186 15.1404C11.4961 15.1544 11.464 15.2544 11.4274 15.2882C11.2732 15.4303 11.0621 15.5815 10.9135 15.7214C10.7389 15.886 10.5864 16.1001 10.3871 16.2305L10.4141 16.3114C10.2543 16.2827 10.1248 16.5732 10.019 16.6339C9.97843 16.6569 9.92551 16.6407 9.90863 16.6502C9.90581 16.6519 9.93171 16.6845 9.91032 16.7188C9.85177 16.8115 9.59395 17.0031 9.49938 17.0958C9.013 17.574 8.51537 18.0246 8.0397 18.5028C7.99297 18.5494 7.96933 18.6641 7.93893 18.6843C7.90854 18.7045 7.86181 18.6893 7.83423 18.7051C7.82241 18.7118 7.6873 18.8967 7.65015 18.9147C7.61637 18.9315 7.55895 18.9135 7.5477 18.9242C7.54207 18.9293 7.5477 19.0068 7.50548 19.0647C7.44637 19.145 7.28143 19.2355 7.21613 19.2956C7.00222 19.4923 6.80632 19.7047 6.63406 19.9064C6.59015 19.9581 6.49614 19.9766 6.48263 19.9963C6.44379 20.0519 6.4269 20.0851 6.35485 20.1475C6.32107 20.1767 6.15163 20.2924 6.14544 20.3042C6.12911 20.3335 6.1505 20.3857 6.13474 20.4048C6.1263 20.4149 6.05143 20.4161 6.00977 20.4633C5.97262 20.5048 5.97374 20.5739 5.96924 20.5779C5.96642 20.5807 5.92477 20.5532 5.90394 20.5577C5.86847 20.565 5.66751 20.8156 5.62022 20.8611C4.96384 21.487 4.32267 22.1107 3.67699 22.7659C3.59649 22.848 3.38201 22.9873 3.32403 23.0615C3.3184 23.0688 3.28068 23.2379 3.28293 23.2475C3.28519 23.2587 3.37188 23.4363 3.3837 23.4559C3.45519 23.5706 3.60212 23.6577 3.6646 23.7919C3.79689 23.8543 3.87683 23.7565 3.96915 23.6975C4.05021 23.6459 4.10706 23.6054 4.18869 23.5436C4.22247 23.5177 4.22922 23.4548 4.31084 23.4672L4.29508 23.3834C4.47522 23.3368 4.54728 23.1362 4.65986 23.0323C4.89854 22.8126 5.14398 22.5771 5.3776 22.3591C5.42376 22.3158 5.62585 22.1574 5.64499 22.1209C5.66413 22.0843 5.65512 22.022 5.66413 22.013C5.67314 22.004 5.73562 22.0141 5.77278 21.9944C5.84596 21.9557 6.25014 21.5359 6.35316 21.4381C6.89976 20.919 7.452 20.3413 8.0048 19.8019C8.06953 19.739 8.23391 19.6575 8.24348 19.6463C8.2598 19.626 8.30371 19.4934 8.33298 19.4558L8.36113 19.5395C8.46527 19.5232 8.41067 19.4052 8.41742 19.4001C8.42587 19.3934 8.47315 19.4108 8.49342 19.3934C8.50749 19.3816 8.50468 19.3333 8.53282 19.3046C8.83399 18.9989 9.19427 18.6663 9.49994 18.4179C9.56862 18.3617 9.6069 18.2668 9.7116 18.2763L9.68289 18.1926L9.76452 18.1909C9.72905 18.033 9.86697 18.0915 9.92833 18.0167C9.96042 17.978 9.95141 17.9089 9.97055 17.8903C9.98237 17.8785 10.2025 17.7763 10.2402 17.7094C10.2576 17.679 10.2357 17.6178 10.2475 17.6054C10.252 17.6009 10.328 17.6037 10.3736 17.5773C10.4457 17.5352 10.6539 17.2672 10.7333 17.1924C11.4533 16.5159 12.1395 15.8472 12.8646 15.1516C13.1601 14.8679 13.4911 14.5442 13.8007 14.2621C13.9685 14.1093 14.094 13.9503 14.2646 13.8244C14.474 13.6693 14.7695 13.3176 14.997 13.0973C15.3775 12.7276 15.7338 12.3966 16.0778 12.046C16.2478 11.8724 16.4606 11.7257 16.6204 11.5594C16.6379 11.5414 16.6328 11.4863 16.6559 11.4678C16.7814 11.5066 16.719 11.4515 16.782 11.37C16.8743 11.2509 17.0837 11.102 17.1935 10.9941C17.7092 10.4879 18.2231 10.0102 18.7309 9.54049C18.7635 9.51015 18.7478 9.4416 18.7748 9.4135C18.7844 9.40395 18.9318 9.34214 18.9499 9.32472C19.0889 9.19043 19.2111 9.03422 19.3298 8.88869L19.6096 8.70438L19.5539 8.64876C19.7295 8.64314 19.8303 8.43355 19.9462 8.32454C20.2311 8.05764 20.5278 7.79748 20.7923 7.54125C21.4324 6.92148 22.0443 6.31968 22.6613 5.73025C22.7237 5.67013 22.8082 5.52516 22.8532 5.48526C22.8876 5.45492 23.0598 5.39873 23.0683 5.3903C23.0733 5.38524 23.0137 5.32681 23.0947 5.26331C23.1504 5.21948 23.2129 5.23297 23.2321 5.21724C23.2568 5.19701 23.2709 5.0245 23.4071 5.05485L23.3784 4.97112C23.4077 4.96607 23.4477 4.96213 23.4713 4.94415C23.7258 4.74974 23.9205 4.44519 24.1502 4.25189C24.1665 4.23785 24.2088 4.24627 24.2166 4.23672C24.224 4.22829 24.2453 4.06815 24.2386 4.04287C24.233 4.02151 24.0962 3.85126 24.0725 3.82934L24.072 3.82991ZM25.6521 5.25713C25.6386 5.2369 25.5637 5.23971 25.535 5.21892C25.41 5.1307 25.423 5.04867 25.2001 5.09137C25.0813 5.11385 24.7863 5.45941 24.658 5.56168C24.6298 5.58416 24.5724 5.58247 24.564 5.59371C24.5488 5.61281 24.5702 5.66563 24.5538 5.69429C24.515 5.7634 24.2746 5.91849 24.2076 5.98254C23.831 6.34272 23.4961 6.68211 23.1229 7.0333C23.0424 7.10915 22.9574 7.1468 22.9354 7.16815C22.923 7.17995 22.8774 7.29795 22.8341 7.3474C22.5627 7.65251 22.1681 7.93346 21.8867 8.21216C21.845 8.25318 21.8332 8.33634 21.7763 8.38579C21.7352 8.42175 21.6964 8.39646 21.6941 8.39983C21.6626 8.44928 21.7172 8.50266 21.5512 8.50941C21.6001 8.55211 21.474 8.64707 21.4262 8.69427C21.0102 9.10277 20.5542 9.50116 20.101 9.93888C19.6057 10.4176 19.1581 10.893 18.6723 11.3622C18.3059 11.7162 17.8831 12.0578 17.5487 12.4584C17.4215 12.4433 17.3669 12.6618 17.2678 12.7388C17.1355 12.8422 17.1789 12.7849 17.0505 12.9293C16.9638 13.0265 16.8017 13.194 16.6852 13.2249L16.7133 13.2794C16.5799 13.2591 16.5985 13.3788 16.5647 13.4125C16.5309 13.4463 16.411 13.4271 16.4313 13.5603L16.3756 13.5047C16.3998 13.6154 16.281 13.6098 16.2191 13.6721C16.1189 13.7744 15.9354 14.0306 15.8352 14.1172C15.8166 14.1335 15.7637 14.1121 15.735 14.1278C15.7029 14.1458 15.3235 14.5925 15.2475 14.6661C14.8292 15.073 14.4081 15.4972 13.9842 15.8973C13.9398 15.9394 13.8553 15.9169 13.8711 16.0304C13.8007 15.9748 13.8148 16.0529 13.7613 16.1018C13.5328 16.3108 13.1854 16.7165 12.9586 16.8727C12.9085 16.907 12.8674 16.9328 12.8032 16.9289C12.8539 17.0447 12.8072 16.9941 12.7644 17.0424C12.5578 17.2773 12.0996 17.7549 11.835 17.9285C11.7837 17.9617 11.7398 17.9077 11.7624 18.0516L11.6785 18.0235C11.7055 18.169 11.5681 18.1836 11.4803 18.2612C11.2039 18.5039 10.8493 18.8439 10.583 19.1124C10.5284 19.1675 10.5301 19.2726 10.4136 19.2608L10.4412 19.3147C10.346 19.2928 10.3522 19.367 10.3016 19.4142C9.97843 19.7142 9.666 20.0553 9.35695 20.3526C9.13797 20.5633 8.92744 20.7251 8.73773 20.9145C8.35888 21.2926 7.96933 21.7242 7.57303 22.0821C7.51899 22.131 7.36925 22.199 7.35405 22.2141C7.33209 22.2366 7.34223 22.2995 7.3107 22.34C7.27355 22.3872 7.07652 22.5473 7.00897 22.5445L7.03768 22.6283C6.87837 22.6142 6.89357 22.7243 6.82771 22.7985C6.76691 22.8671 6.51922 23.1289 6.46124 23.1649C6.4224 23.189 6.39988 23.1654 6.36216 23.1615V23.2463L6.27772 23.2182L6.30474 23.3171C6.27041 23.379 6.23213 23.3267 6.2006 23.3374C6.16908 23.348 6.12067 23.4823 6.09646 23.502C6.03904 23.5486 5.97036 23.4846 5.99457 23.638C5.84089 23.5998 5.8195 23.7863 5.7587 23.8386C5.70185 23.8863 5.59095 23.9549 5.53072 24.0032C5.44853 24.069 5.27852 24.3252 5.25938 24.337C5.2363 24.3516 5.18789 24.3319 5.15918 24.3477C5.13441 24.3617 4.79102 24.7365 4.7747 24.7652C4.60244 25.0691 4.83944 25.0905 4.9554 25.2596C5.02464 25.3608 4.94865 25.3979 5.171 25.4254C5.36747 25.4495 5.51158 25.2231 5.64386 25.0995C5.81894 24.936 5.99063 24.7579 6.17415 24.6028C6.26027 24.5303 6.35879 24.4589 6.4466 24.3572C6.46968 24.3302 6.46518 24.2853 6.4815 24.2656C6.50853 24.2325 6.60028 24.228 6.63462 24.1937C6.66896 24.1594 6.67966 24.056 6.70499 24.0392C6.73032 24.0223 6.78943 24.0392 6.82827 24.0077C6.86317 23.9802 6.85585 23.9229 6.87499 23.9004C6.94874 23.8127 7.2409 23.5824 7.33772 23.5194C8.56773 22.2883 9.83939 21.0465 11.075 19.9238C11.24 19.7738 11.3942 19.5957 11.5608 19.4389C11.7517 19.2591 11.9487 19.045 12.1125 18.8967C12.9406 18.1477 13.7067 17.3082 14.5308 16.5659C14.7194 16.3962 14.8968 16.1906 15.0932 16.0035C15.4512 15.6624 15.8149 15.3331 16.1859 14.9735C16.1988 14.9611 16.245 14.9724 16.2545 14.9611C16.2714 14.9426 16.2529 14.883 16.2731 14.8527C16.2956 14.8195 16.424 14.8173 16.4274 14.6965C16.5968 14.7381 16.5124 14.6881 16.5495 14.6386C16.7432 14.3841 17.131 14.0778 17.3714 13.8441C18.526 12.7208 19.7008 11.5897 20.8278 10.5277C21.6317 9.77031 22.4389 8.9342 23.2214 8.22958C23.2597 8.19474 23.2754 8.12507 23.3199 8.10259C23.3525 8.08629 23.4066 8.09753 23.4252 8.08236C23.4358 8.07337 23.4392 8.01044 23.4713 7.97448C23.6571 7.76489 23.9414 7.47776 24.1485 7.30132C24.1941 7.26255 24.2724 7.30301 24.247 7.19006L24.3028 7.24569C24.2909 7.14961 24.3827 7.12488 24.4334 7.06589C24.4469 7.04959 24.4384 7.00632 24.448 6.9979C24.4671 6.9816 24.5206 7.00295 24.5499 6.98722C24.5792 6.97149 24.5977 6.85798 24.6208 6.8327C24.6456 6.80516 24.7114 6.80123 24.7548 6.75516C25.0075 6.48432 25.2209 6.29271 25.5046 6.06009C25.5378 6.03255 25.5232 5.95838 25.5485 5.9331C25.5632 5.91849 25.6138 5.92073 25.6392 5.89882C25.754 5.80274 25.7895 5.72407 25.8491 5.59034C25.7405 5.59652 25.8339 5.5274 25.8176 5.48189C25.8142 5.47234 25.6746 5.37963 25.6622 5.35603C25.6453 5.324 25.6622 5.27567 25.6499 5.25713H25.6521ZM26.9407 6.94508C26.9164 6.90855 26.8185 6.84 26.7949 6.76808L26.7656 6.82595C26.7014 6.79056 26.5832 6.79112 26.528 6.83944C26.4988 6.86529 26.5078 6.91136 26.4931 6.92934C26.4802 6.94508 26.2499 7.09904 26.1734 7.17265C25.1905 8.11383 24.1693 9.10389 23.1949 10.0518C23.1223 10.1226 22.9134 10.3013 22.878 10.3418C22.8645 10.3575 22.8791 10.4047 22.869 10.4137C22.851 10.4305 22.7913 10.4058 22.7643 10.4221C22.7553 10.4277 22.7271 10.5334 22.677 10.5749C22.6044 10.6351 22.534 10.5783 22.5627 10.7267C22.4153 10.6986 22.4721 10.7649 22.4209 10.8227C22.1873 11.0857 21.858 11.3683 21.5917 11.5976C21.5354 11.6459 21.4768 11.6836 21.4352 11.7207C21.384 11.7662 21.3817 11.8476 21.3406 11.8808C21.3125 11.9038 21.2539 11.8993 21.2444 11.9106C21.228 11.9308 21.2517 11.9898 21.237 12.014C21.2269 12.0308 21.1216 12.0381 21.0839 12.0724C21.0462 12.1067 21.0541 12.1629 21.0372 12.1792C21.0136 12.2022 20.9387 12.191 20.9094 12.2202C20.8801 12.2494 20.8914 12.3247 20.8683 12.3477C20.8531 12.3629 20.8019 12.3579 20.776 12.3815C19.5741 13.4738 18.4061 14.7173 17.2571 15.8085C17.2233 15.8405 17.0939 15.8832 17.0849 15.8973C17.0494 15.9529 17.0077 16.0602 16.9475 16.117C16.6734 16.3743 16.3998 16.6148 16.1363 16.8457C16.0935 16.8828 15.9629 16.9879 15.941 17.0154C15.9021 17.0649 15.9083 17.1323 15.8943 17.1509C15.8802 17.1694 15.6134 17.3425 15.5452 17.4065C15.4496 17.4964 15.4056 17.633 15.3848 17.6538C15.364 17.6745 15.3009 17.6644 15.2705 17.6863C15.0628 17.8364 14.7256 18.2061 14.5196 18.4039C14.2668 18.6461 14.0771 18.8658 13.8187 19.108C13.781 19.1434 13.709 19.1484 13.6898 19.1743C13.6774 19.1911 13.7174 19.2462 13.6634 19.2906L13.535 19.2878C13.5536 19.4473 13.3932 19.4996 13.2952 19.5957C13.1973 19.6918 13.0222 19.9148 12.9141 19.975C12.8803 19.9935 12.8162 19.9823 12.8066 19.9929C12.7936 20.0059 12.8128 20.0722 12.7908 20.1036C12.7728 20.1295 12.7199 20.1199 12.6996 20.1385C12.6664 20.1694 12.5538 20.3329 12.5122 20.3717C12.4407 20.438 12.408 20.4863 12.3005 20.4992L12.2971 20.6082C12.2352 20.5515 12.1913 20.6757 12.1435 20.72C12.1142 20.7476 12.0585 20.747 12.0303 20.7762C11.9943 20.8133 11.9994 20.8836 11.974 20.9184C11.9504 20.9504 11.9025 20.9122 11.8761 20.9291C11.844 20.9493 11.8338 21.0178 11.8018 21.0544C11.6633 21.2111 11.4257 21.3443 11.3165 21.4955C11.2923 21.5292 11.2963 21.5904 11.2788 21.6112C11.2591 21.6348 11.1837 21.6359 11.1465 21.6618C10.9382 21.8096 10.65 22.1388 10.4513 22.3293C9.68177 23.0665 8.93926 23.8066 8.16467 24.5533C7.92767 24.782 7.65128 25.0523 7.40246 25.2787C7.36756 25.3102 7.31971 25.3979 7.31352 25.4018C7.28256 25.4192 7.2212 25.3979 7.20937 25.4091C7.20318 25.4153 7.21106 25.4799 7.19136 25.5181C7.14858 25.6013 7.02924 25.5973 7.01573 25.6086C7.00728 25.6153 7.00165 25.6816 6.97125 25.7181C6.92678 25.7715 6.84854 25.7805 6.81476 25.8148C6.72131 25.9109 6.59691 26.0255 6.52091 26.1098C6.49333 26.1401 6.39875 26.2913 6.38524 26.334C6.3768 26.3604 6.36104 26.4812 6.36892 26.4958C6.3768 26.5104 6.61942 26.6953 6.64757 26.7099C6.78098 26.7773 6.89976 26.7818 7.03655 26.7099C7.1998 26.6239 7.55558 26.198 7.71489 26.0457C8.12639 25.6501 8.71578 25.1619 9.06142 24.7455C9.10927 24.6882 9.2804 24.6679 9.26069 24.5078L9.34457 24.5365C9.31811 24.5067 9.45153 24.3482 9.46279 24.3437C9.48924 24.3342 9.51908 24.3685 9.53766 24.3623C9.56017 24.3544 9.62716 24.2111 9.63392 24.2049C9.65475 24.187 9.70259 24.2049 9.71104 24.1988C9.71442 24.196 9.67726 24.1448 9.69471 24.115C9.71104 24.0869 9.81068 24.0482 9.84896 24.0139C9.91313 23.956 9.92833 23.8515 10.0477 23.8605L10.0201 23.8066C10.1338 23.8313 10.0888 23.7571 10.1124 23.7296C10.127 23.7122 10.3325 23.6003 10.3669 23.5543C10.4727 23.3531 10.775 23.1873 10.9123 23.0126C10.9444 22.9721 10.9388 22.8963 10.9534 22.8845C10.9703 22.8704 11.0283 22.8901 11.075 22.8519C11.2405 22.7165 11.4387 22.4591 11.6047 22.3001C11.6886 22.2192 11.8327 22.127 11.9239 22.0281C11.9881 21.959 11.9791 21.8405 12.1018 21.8972C12.1525 21.7062 12.4041 21.5702 12.5488 21.4303C12.828 21.1606 13.1033 20.8751 13.3678 20.5902C13.5007 20.615 13.4247 20.5813 13.4787 20.5065C13.5677 20.384 13.727 20.2952 13.83 20.1823C13.8863 20.1205 14.2027 19.7642 14.2454 19.7412C14.2753 19.7249 14.3288 19.7463 14.3473 19.7305C14.3789 19.703 14.5269 19.4822 14.6029 19.4108C14.6372 19.3788 14.6935 19.3794 14.7087 19.3631C14.7453 19.3243 14.7042 19.2333 14.8557 19.2569C14.8146 19.1119 15.0037 19.0844 15.0566 19.0214C15.6657 18.3027 16.6497 17.4577 17.3759 16.7615C17.3939 16.744 17.4018 16.7159 17.4153 16.6952L17.5014 16.6569L17.815 16.3164L17.9219 16.3395C17.9293 16.3029 17.8865 16.2642 17.8989 16.2327C17.9051 16.2164 18.1297 16.0349 18.1618 16.0035C18.3447 15.822 18.5108 15.6556 18.6926 15.4792C18.7731 15.4017 18.8553 15.3033 18.9482 15.214C19.309 14.869 19.725 14.497 20.083 14.1593C20.7327 13.5474 21.3311 12.931 21.9739 12.3135C22.1856 12.1101 22.4333 11.8797 22.6449 11.7201C22.6911 11.6853 22.8363 11.4807 22.8802 11.4358C22.9951 11.32 23.1482 11.211 23.2546 11.1071C23.3368 11.0262 23.5991 10.7115 23.665 10.675C23.6965 10.6575 23.737 10.6699 23.7708 10.6682L23.7432 10.5867C23.9228 10.553 23.9599 10.3861 24.0793 10.2665C24.104 10.2417 24.1418 10.2507 24.1541 10.2389C24.3906 10.0119 24.5949 9.79615 24.8409 9.56072C24.8713 9.53206 24.9383 9.52757 24.9479 9.51239C24.9636 9.48767 24.9411 9.43204 24.9558 9.40957C24.9676 9.39103 25.0509 9.39271 25.0847 9.36855C25.2322 9.26291 25.5181 8.91116 25.6729 8.76282C26.0799 8.37118 26.5787 7.94975 26.9474 7.50922C26.9801 7.47045 27.0493 7.45022 27.0606 7.41876C27.078 7.37212 27.0763 7.22715 27.06 7.17658C27.0527 7.15298 26.9547 6.96755 26.9395 6.94395L26.9407 6.94508ZM28.0192 8.67685L27.6533 8.56391C27.6803 8.71506 27.6179 8.6555 27.57 8.6909C27.5379 8.71506 27.5492 8.76226 27.534 8.78136C27.5238 8.79373 27.3448 8.93701 27.2981 8.9814C25.9696 10.249 24.6006 11.5645 23.2827 12.8608C23.0863 13.054 22.9168 13.1895 22.753 13.385C22.7333 13.4086 22.5588 13.48 22.5419 13.512C22.5256 13.5418 22.547 13.5952 22.5312 13.6137C22.4203 13.7418 22.0561 14.0121 21.9058 14.1537C20.9719 15.0319 20.0898 15.9585 19.1367 16.8356C19.0872 16.8811 19.0202 16.9525 18.9881 17.0121L18.9088 16.9862C18.8547 17.1773 18.6217 17.3515 18.4731 17.4925C18.1623 17.7869 17.8775 18.0724 17.5487 18.3809C17.524 18.4045 17.3843 18.4708 17.3635 18.4904C17.3252 18.5264 17.2363 18.6938 17.2014 18.7287C17.1716 18.7584 17.0967 18.7832 17.0522 18.7837L17.0804 18.8675C17.0229 18.8343 16.894 18.9394 16.8676 18.981C16.8484 19.0107 16.8867 19.0602 16.8833 19.063C16.88 19.0664 16.8192 19.0658 16.7843 19.0911C16.7161 19.1405 16.5591 19.2911 16.4882 19.3574C15.9303 19.8834 15.4265 20.4357 14.8585 20.9594C14.8236 20.992 14.6727 21.0819 14.6676 21.092C14.6519 21.1212 14.6727 21.1741 14.6569 21.192C14.6237 21.2302 14.4087 21.3983 14.3299 21.4758C13.4742 22.3153 12.6636 23.071 11.7759 23.9172C11.5738 24.11 11.3492 24.3139 11.1285 24.5196C11.0525 24.5904 11.0001 24.7393 10.8656 24.7359L10.8819 24.8202C10.8639 24.8433 10.8099 24.8376 10.7902 24.8556C10.5864 25.0394 10.4057 25.2619 10.2075 25.4529C10.1107 25.5462 9.73693 25.9294 9.67726 25.9631C9.64686 25.9805 9.59282 25.9598 9.57594 25.9727C9.55905 25.9856 9.56411 26.103 9.53653 26.1306C9.52133 26.1457 9.46447 26.1452 9.42901 26.1772C9.21453 26.3683 9.03946 26.579 8.82893 26.7846C8.77094 26.8408 8.49511 27.051 8.48441 27.0706C8.47766 27.0824 8.5058 27.1167 8.50355 27.119C8.48047 27.1397 8.33805 27.119 8.36282 27.2611L8.2508 27.2325C8.27331 27.4252 8.1247 27.3561 8.17311 27.5786C8.20576 27.7297 8.68256 27.891 8.80641 28.0146C9.00118 27.9685 8.88522 28.0416 8.94433 28.0764C8.99949 28.1085 9.13122 28.1231 9.19877 28.154C9.37328 28.2338 9.52696 28.363 9.73806 28.3613L9.75832 28.4417C10.0218 28.4507 10.2571 28.6147 10.4941 28.685C10.578 28.7097 10.7012 28.7018 10.7609 28.7209C10.7924 28.731 10.7868 28.7822 10.8285 28.7996C10.9731 28.8586 11.2867 28.921 11.433 28.9552C12.2566 29.1497 13.1145 29.2845 13.9465 29.3958L13.9994 29.3413C15.4253 29.4879 16.8276 29.3474 18.2158 29.0575C18.5901 28.9794 19.0912 28.8372 19.5066 28.6906C19.591 28.6608 19.6378 28.6675 19.6969 28.6456C19.7678 28.6198 19.8275 28.5462 19.9265 28.5153C20.0341 28.4816 20.226 28.4759 20.3234 28.4344C20.3729 28.413 20.3735 28.3579 20.3983 28.3422C20.4062 28.3372 20.5058 28.3484 20.5576 28.3327C20.6415 28.3079 20.7175 28.2416 20.7844 28.2236C20.8115 28.2163 20.8526 28.2506 20.8723 28.2394C20.8813 28.2343 20.8892 28.1832 20.9224 28.1624C21.004 28.1124 21.1059 28.0944 21.1729 28.0186L21.2145 28.0742C21.1993 27.991 21.2753 28.0315 21.304 28.0157C21.6587 27.8174 22.0499 27.555 22.4237 27.3864C22.4687 27.3662 22.6686 27.2077 22.6804 27.151L22.7902 27.1763L22.766 27.1246C22.8065 27.0712 22.9709 27.0689 22.9821 27.0594C22.9934 27.0498 22.9833 26.9965 23.0148 26.9672C23.1549 26.8369 23.4533 26.6975 23.6284 26.57C23.8034 26.4424 23.9886 26.3093 24.1581 26.184C24.2611 26.1075 24.3337 25.9671 24.4626 25.885C24.6355 25.7749 24.6208 25.7457 24.7722 25.6046C24.7981 25.5805 24.8499 25.5777 24.8831 25.5468C24.994 25.4428 25.0774 25.2461 25.2614 25.2366C25.2367 25.0815 25.325 25.1495 25.3515 25.1113C25.369 25.0866 25.3639 25.0298 25.3937 24.9894C25.5052 24.8405 25.6988 24.7275 25.8255 24.6207C25.8294 24.6174 25.7889 24.573 25.8227 24.523C25.848 24.4853 25.9094 24.469 25.9392 24.4325C26.2792 24.0178 26.8039 23.3924 27.042 22.9581C27.0819 22.8856 27.0364 22.7822 27.1765 22.7968L27.1484 22.685C27.2463 22.7086 27.261 22.6002 27.3088 22.5232C28.0434 21.3308 28.6216 20.075 28.952 18.7157C29.0691 18.2331 29.1862 17.7673 29.2571 17.2829C29.2763 17.1514 29.2785 16.9857 29.3703 16.8879C29.22 16.8294 29.3382 16.78 29.3624 16.6839C29.5313 16.0063 29.4069 14.7701 29.3978 14.0514C29.3962 13.9053 29.4102 13.7356 29.4266 13.5895L29.3708 13.6182C29.4119 13.4805 29.3337 13.3653 29.3173 13.2642C29.2701 12.9692 29.2605 12.6562 29.2183 12.3674C29.2132 12.332 29.144 12.2955 29.1293 12.2432C29.1186 12.2039 29.1445 12.1618 29.1378 12.1235C29.0927 11.8864 29.0567 11.7695 29.0567 11.5251C29.0567 11.5173 28.9492 11.4167 28.9486 11.4088C28.8957 10.9228 28.6508 10.3035 28.4583 9.83549C28.429 9.76469 28.4442 9.76637 28.4335 9.73435C28.3829 9.58657 28.3249 9.42474 28.2179 9.30843L28.2742 9.2528C28.187 9.21009 28.1814 9.10895 28.1054 9.02748L28.1616 8.99994C28.0862 8.91285 27.9517 8.79766 28.0215 8.67741L28.0192 8.67685Z" fill="black"/>
</svg>
